<?xml version="1.0" encoding="UTF-8"?>
<svg width="600" height="400" viewBox="0 0 600 400" fill="none" xmlns="http://www.w3.org/2000/svg">
    <!-- Background Elements -->
    <circle cx="300" cy="200" r="150" fill="#ECF0F1" opacity="0.1"/>
    <circle cx="300" cy="200" r="100" fill="#3498DB" opacity="0.1"/>
    
    <!-- University Building -->
    <path d="M200,300 L400,300 L380,150 L220,150 Z" fill="#2C3E50"/>
    <rect x="280" y="220" width="40" height="80" fill="#ECF0F1"/>
    <path d="M180,150 L420,150 L300,50 Z" fill="#34495E"/>
    
    <!-- Graduation Cap -->
    <path d="M280,100 L320,100 L300,80 Z" fill="#E74C3C"/>
    <rect x="295" y="100" width="10" height="20" fill="#E74C3C"/>
    <circle cx="300" cy="120" r="5" fill="#C0392B"/>
    
    <!-- Charts and Graphs -->
    <rect x="440" y="180" width="20" height="80" fill="#27AE60" opacity="0.8"/>
    <rect x="470" y="150" width="20" height="110" fill="#2980B9" opacity="0.8"/>
    <rect x="500" y="200" width="20" height="60" fill="#8E44AD" opacity="0.8"/>
    
    <!-- Decorative Elements -->
    <circle cx="150" cy="150" r="10" fill="#F1C40F"/>
    <circle cx="450" cy="250" r="8" fill="#E74C3C"/>
    <circle cx="200" cy="100" r="6" fill="#2ECC71"/>
    <circle cx="400" cy="120" r="7" fill="#3498DB"/>
</svg>
